<?xml version="1.0" encoding="utf-8"?>
<!-- Svg Vector Icons : http://www.onlinewebfonts.com/icon -->
<!DOCTYPE svg PUBLIC "-//W3C//DTD SVG 1.1//EN" "http://www.w3.org/Graphics/SVG/1.1/DTD/svg11.dtd">
<svg version="1.1" xmlns="http://www.w3.org/2000/svg" xmlns:xlink="http://www.w3.org/1999/xlink" x="0px" y="0px" viewBox="0 0 1000 1000" enable-background="new 0 0 1000 1000" xml:space="preserve">
<metadata> Svg Vector Icons : http://www.onlinewebfonts.com/icon </metadata>
<g><path d="M235.6,387.5c-23.4,0-42.3,19.1-42.3,42.5c0,23.5,18.9,42.5,42.3,42.5c23.3,0,42.2-19.1,42.2-42.5C277.8,406.6,258.9,387.5,235.6,387.5z"/><path d="M960,484.4C913.7,290.9,864.5,188,766.5,158.8c-21.4-6.3-39.5-8.8-56.3-8.8c-60.4,0-102.7,32.1-210.2,32.1c-107.6,0-149.8-32.1-210.1-32.1c-16.8,0-34.9,2.5-56.3,8.8C135.4,188,86.3,290.9,40.1,484.4C-6.3,677.9,2.2,817.7,56.9,843.8c8.9,4.3,18,6.2,27.2,6.2c47.5,0,98.7-52.1,148-113.9c56.1-70.2,70.3-72.1,241.2-72.1h53.3c170.9,0,185.1,1.9,241.2,72.1c49.3,61.7,100.6,113.8,148,113.8c9.2,0,18.3-1.9,27.2-6.2C997.8,817.6,1006.2,677.9,960,484.4z M235.8,516.7c-47.3,0-85.8-38.8-85.8-86.7c0-47.8,38.5-86.7,85.8-86.7c47.4,0,85.9,38.9,85.9,86.7C321.7,477.9,283.2,516.7,235.8,516.7z M613.9,474.1c-24.2,0-43.9-19.7-43.9-44c0-24.3,19.7-44,43.9-44c24.3,0,44.1,19.7,44.1,44C658,454.3,638.3,474.1,613.9,474.1z M710,570c-24.2,0-43.9-19.6-43.9-43.8c0-24.4,19.7-44,43.9-44c24.4,0,44.1,19.6,44.1,44C754.1,550.4,734.4,570,710,570z M710,377.9c-24.2,0-43.9-19.7-43.9-43.9c0-24.3,19.7-44,43.9-44c24.4,0,44.1,19.7,44.1,44C754.1,358.2,734.4,377.9,710,377.9z M806.1,474.1c-24.3,0-44-19.7-44-44c0-24.3,19.7-44,44-44c24.2,0,43.9,19.7,43.9,44C850,454.3,830.3,474.1,806.1,474.1z"/></g>
</svg>